<?xml version="1.0" standalone="no"?>
<!DOCTYPE svg PUBLIC "-//W3C//DTD SVG 20010904//EN"
 "http://www.w3.org/TR/2001/REC-SVG-20010904/DTD/svg10.dtd">
<svg version="1.0" xmlns="http://www.w3.org/2000/svg"
 width="512.000000pt" height="512.000000pt" viewBox="0 0 512.000000 512.000000"
 preserveAspectRatio="xMidYMid meet">
<metadata>
Created by potrace 1.11, written by Peter Selinger 2001-2013
</metadata>
<g transform="translate(0.000000,512.000000) scale(0.100000,-0.100000)"
fill="#000000" stroke="none">
<path d="M2629 4146 c-2 -2 -38 -7 -79 -10 -93 -8 -300 -43 -337 -56 -127 -46
-96 -73 145 -125 296 -64 468 -116 817 -250 83 -31 177 -67 210 -80 359 -135
492 -192 516 -221 20 -24 0 -34 -54 -29 -68 7 -105 14 -142 25 -87 27 -491
165 -630 215 -712 256 -1108 352 -1426 346 -90 -2 -101 -3 -184 -22 -56 -13
-176 -83 -216 -126 -62 -68 -95 -131 -144 -273 -62 -184 -229 -652 -248 -700
-21 -50 -28 -56 -87 -86 -36 -17 -135 -55 -220 -84 -224 -75 -346 -136 -423
-213 -132 -129 -159 -277 -74 -401 45 -66 207 -214 307 -282 198 -133 463
-269 710 -364 47 -18 103 -40 125 -50 147 -65 661 -211 930 -265 66 -13 192
-36 225 -41 19 -2 58 -9 85 -14 28 -5 73 -12 100 -15 28 -3 66 -7 85 -10 19
-2 60 -7 90 -11 30 -3 69 -7 87 -9 234 -27 811 -27 1048 0 164 19 288 36 295
40 3 1 25 6 50 9 137 18 456 99 586 147 197 74 324 206 340 355 11 103 -42
236 -135 337 -83 90 -228 189 -394 268 -111 53 -127 64 -127 89 0 33 -50 272
-91 435 -114 456 -262 819 -413 1009 -107 135 -279 254 -498 344 -77 32 -265
85 -348 97 -25 4 -56 9 -70 11 -31 6 -406 14 -411 10z m-1516 -1490 c24 -8
104 -44 178 -79 142 -68 410 -177 544 -220 168 -55 481 -138 575 -153 19 -3
38 -8 41 -10 7 -4 13 -5 214 -38 132 -22 180 -29 285 -42 28 -3 108 -11 185
-19 301 -29 702 -23 930 15 27 5 97 8 155 7 118 -3 183 -25 216 -74 48 -75 0
-226 -109 -336 -85 -87 -158 -119 -347 -156 -206 -40 -286 -46 -590 -46 -284
0 -427 8 -645 36 -49 7 -97 13 -105 14 -18 2 -123 18 -130 20 -3 1 -30 5 -60
9 -60 9 -82 13 -120 21 -14 3 -36 7 -50 10 -14 3 -36 7 -50 10 -14 3 -34 7
-45 9 -11 2 -59 13 -107 25 -48 11 -98 22 -110 25 -13 2 -49 12 -82 21 -32 9
-64 18 -70 19 -140 28 -560 185 -731 274 -175 90 -294 279 -296 468 -1 71 17
118 59 157 55 53 167 67 265 33z"/>
</g>
</svg>
